<?xml version="1.0" standalone="no"?>
<!DOCTYPE svg PUBLIC "-//W3C//DTD SVG 20010904//EN"
 "http://www.w3.org/TR/2001/REC-SVG-20010904/DTD/svg10.dtd">
<svg version="1.0" xmlns="http://www.w3.org/2000/svg"
 width="1150.000000pt" height="160.000000pt" viewBox="0 0 1150.000000 160.000000"
 preserveAspectRatio="xMidYMid meet">

<g transform="translate(0.000000,160.000000) scale(0.100000,-0.100000)"
fill="#202a45" stroke="none">
<path d="M1049 1311 l-29 -29 0 -411 0 -411 29 -32 29 -33 389 -3 c213 -2 403
0 421 3 18 3 42 15 53 26 18 18 19 36 19 448 l0 430 -26 20 c-26 20 -37 21
-441 21 l-415 0 -29 -29z m849 -43 c9 -9 12 -110 12 -394 0 -210 -3 -389 -6
-398 -5 -14 -50 -16 -403 -16 -295 0 -400 3 -409 12 -17 17 -17 779 0 796 17
17 789 17 806 0z"/>
<path d="M1558 943 l-128 -128 -63 63 -63 62 -37 -38 -37 -38 100 -99 100
-100 167 167 167 167 -34 36 c-19 19 -36 35 -40 35 -3 0 -62 -57 -132 -127z"/>
<path d="M3598 1329 c-17 -7 -30 -22 -37 -42 -16 -54 -54 -324 -48 -341 5 -13
24 -16 100 -16 80 0 97 3 111 19 18 20 146 333 146 357 0 7 -8 17 -17 22 -24
13 -222 13 -255 1z"/>
<path d="M4345 1333 c-161 -10 -286 -78 -339 -185 -21 -41 -26 -66 -26 -122 1
-171 105 -259 350 -296 108 -16 148 -28 160 -49 14 -27 -11 -44 -75 -49 -45
-4 -64 1 -118 27 -61 30 -69 31 -190 31 -146 0 -162 -7 -151 -68 28 -155 195
-252 434 -252 154 0 275 40 361 117 64 58 84 104 84 198 0 175 -92 252 -346
290 -147 22 -193 47 -157 83 19 19 89 14 123 -8 27 -18 47 -20 186 -20 176 0
178 1 159 71 -19 69 -83 133 -185 184 -71 36 -171 53 -270 48z"/>
<path d="M2080 1301 c-6 -13 -10 -174 -10 -455 0 -382 2 -436 16 -450 13 -13
41 -16 155 -16 78 0 149 5 160 10 18 10 19 26 19 458 0 335 -3 451 -12 460 -8
8 -59 12 -165 12 -140 0 -153 -2 -163 -19z"/>
<path d="M2572 1308 c-8 -8 -12 -53 -12 -135 0 -111 2 -123 19 -133 11 -5 69
-10 130 -10 l111 0 0 -315 c0 -300 1 -315 19 -325 26 -13 276 -13 302 0 18 10
19 25 19 325 l0 315 111 0 c61 0 119 5 130 10 17 10 19 22 19 133 0 82 -4 127
-12 135 -17 17 -819 17 -836 0z"/>
<path d="M5390 1301 c-6 -13 -10 -174 -10 -455 0 -382 2 -436 16 -450 12 -13
41 -16 153 -16 94 0 142 4 154 13 14 10 17 34 19 147 l3 134 25 0 c22 0 31
-13 83 -129 32 -72 67 -138 79 -148 17 -14 42 -17 163 -17 154 0 175 3 175 28
0 8 -36 82 -80 164 -44 81 -80 152 -80 156 0 5 18 23 39 40 22 18 52 56 68 89
24 50 28 70 27 138 0 100 -27 167 -90 225 -93 85 -163 100 -484 100 -236 0
-250 -1 -260 -19z m474 -253 c9 -12 16 -34 16 -48 0 -14 -7 -36 -16 -48 -13
-19 -24 -22 -80 -22 l-64 0 0 70 0 70 64 0 c56 0 67 -3 80 -22z"/>
<path d="M6400 1301 c-6 -13 -10 -172 -10 -455 0 -382 2 -436 16 -450 13 -14
61 -16 374 -16 l359 0 15 22 c19 26 23 187 6 219 -10 18 -23 19 -225 19 l-215
0 0 45 0 45 195 0 195 0 10 26 c6 14 10 61 10 105 0 122 3 121 -225 117 l-185
-3 0 43 0 42 203 0 c111 0 208 4 215 8 9 7 12 39 10 128 l-3 119 -367 3 c-355
2 -368 2 -378 -17z"/>
<path d="M7586 1298 c-8 -13 -82 -218 -165 -457 -118 -337 -149 -436 -140
-447 16 -19 277 -20 302 -1 9 6 24 34 34 60 l18 48 144 0 145 0 18 -48 c11
-26 26 -54 35 -61 25 -18 286 -17 302 2 9 10 -25 115 -144 456 -85 244 -160
449 -166 457 -9 10 -53 13 -190 13 -174 0 -179 -1 -193 -22z m228 -396 c16
-53 31 -105 34 -114 4 -16 -4 -18 -67 -18 -39 0 -71 3 -71 7 0 18 64 223 69
223 3 0 19 -44 35 -98z"/>
<path d="M8417 1313 c-4 -3 -7 -210 -7 -458 0 -388 2 -454 15 -465 11 -9 77
-11 272 -8 289 5 344 16 440 82 116 80 147 169 141 415 -3 154 -5 170 -30 223
-46 100 -143 173 -269 203 -48 11 -126 15 -310 15 -135 0 -249 -3 -252 -7z
m484 -282 l29 -29 0 -142 c0 -165 -9 -193 -68 -210 -20 -7 -55 -10 -77 -8
l-40 3 -3 208 -2 207 66 0 c59 0 68 -3 95 -29z"/>
<path d="M9373 1303 c-5 -12 45 -119 145 -318 l152 -300 0 -142 c0 -130 2
-143 19 -153 11 -5 80 -10 155 -10 109 0 138 3 150 16 13 13 16 42 16 156 l0
141 152 297 c96 189 149 303 145 313 -6 15 -26 17 -156 17 -177 0 -156 15
-246 -169 -32 -66 -62 -121 -65 -121 -3 0 -33 55 -65 121 -90 184 -69 169
-246 169 -132 0 -150 -2 -156 -17z"/>
</g>
</svg>
